<svg xmlns="http://www.w3.org/2000/svg" width="45" height="27" viewBox="0 0 45 27"><path d="M40.638,85.068H29.363v-2.7H40.639v2.7ZM21.857,96.143a6.948,6.948,0,0,1,1.091,3.955,7.668,7.668,0,0,1-1.244,4.308,7.572,7.572,0,0,1-1.981,2.121,7.794,7.794,0,0,1-3.16,1.356,20.236,20.236,0,0,1-3.953.365H0v-27H13.522c3.408.053,5.825,1.006,7.252,2.876a6.7,6.7,0,0,1,1.28,4.123,5.868,5.868,0,0,1-1.294,3.975,6.584,6.584,0,0,1-2.132,1.536A6.192,6.192,0,0,1,21.857,96.143Zm-15.4-4.251h5.925a5.781,5.781,0,0,0,2.96-.669,2.521,2.521,0,0,0,1.136-2.374,2.408,2.408,0,0,0-1.5-2.491,10.942,10.942,0,0,0-3.305-.422H6.457Zm10.591,7.82a2.886,2.886,0,0,0-1.781-2.892,7.247,7.247,0,0,0-2.8-.458H6.457v7.2h5.917a6.789,6.789,0,0,0,2.835-.474A3.379,3.379,0,0,0,17.048,99.712Zm27.773-4.392a24.5,24.5,0,0,1,.173,3.84h-14.6a4.575,4.575,0,0,0,2.1,4.081,5.431,5.431,0,0,0,2.891.726,4.52,4.52,0,0,0,2.91-.887,4.247,4.247,0,0,0,1.077-1.327h5.352a6.216,6.216,0,0,1-1.943,3.5,9.934,9.934,0,0,1-7.543,2.824,11.2,11.2,0,0,1-7.065-2.38q-3.053-2.386-3.058-7.748,0-5.033,2.76-7.711a9.869,9.869,0,0,1,7.175-2.682,11.8,11.8,0,0,1,4.716.9,8.05,8.05,0,0,1,3.462,2.864A9.348,9.348,0,0,1,44.822,95.319Zm-5.268.5a4.159,4.159,0,0,0-1.4-3.056,4.676,4.676,0,0,0-3.108-1.047,4.246,4.246,0,0,0-3.129,1.109,5.131,5.131,0,0,0-1.4,2.994h9.036Z" transform="translate(0 -81.247)" fill="#c2d8e0"/></svg>