<svg xmlns="http://www.w3.org/2000/svg" xmlns:xlink="http://www.w3.org/1999/xlink" width="98" height="80" viewBox="0 0 98 80"><defs><clipPath id="a"><path d="M36.055,48.513,22.77,55.537q-9.9.08-15.861-7.1Q.945,41.169.945,29.035q0-12.213,5.829-20.2T21.889.857A19.054,19.054,0,0,1,34.971,5.727L35.039,8.2a36.435,36.435,0,0,1-1.22,9.9H29.752l-.474-8.142A17.813,17.813,0,0,0,18.7,6.525l-2.779.16a16.065,16.065,0,0,0-6.168,8.461A37.713,37.713,0,0,0,7.859,27.2q0,9.659,4.135,15.725t10.98,6.067l1.423-.08L34.835,44.6Zm47.189,2.075-.068,3.752H65.011L64.6,51.785a48.236,48.236,0,0,1,6.643-2.794L67.655,38.3h-18.3l-3.8,11.335,7.117.958-.068,3.752H35.12l-.407-2.554a41.544,41.544,0,0,1,5.626-2.395L56.2,4.13l-.474-1.437L61.08.538,78.3,49.949ZM66.028,33.426,58.437,10.915,50.981,33.426Z" transform="translate(436.055 57.462)" fill="#fff"/></clipPath></defs><g transform="translate(-298 -19)"><g transform="translate(298 19)" fill="#828282" stroke="#c2d8e0" stroke-width="3"><rect width="98" height="80" rx="10" stroke="none"/><rect x="1.5" y="1.5" width="95" height="77" rx="8.5" fill="none"/></g><g transform="translate(-130.795 -26.311)" clip-path="url(#a)"><rect width="128.521" height="146.936" transform="translate(412.753 13.912)" fill="#fff"/></g></g></svg>