<svg xmlns="http://www.w3.org/2000/svg" xmlns:xlink="http://www.w3.org/1999/xlink" width="30.099" height="30.099" viewBox="0 0 30.099 30.099"><defs><clipPath id="a"><rect width="30.099" height="30.099" fill="none"/></clipPath></defs><g clip-path="url(#a)"><path d="M0,15.05A14.743,14.743,0,0,1,2.017,7.495,14.943,14.943,0,0,1,7.495,2.017,14.742,14.742,0,0,1,15.05,0,14.742,14.742,0,0,1,22.6,2.017a14.942,14.942,0,0,1,5.478,5.478A14.742,14.742,0,0,1,30.1,15.05,14.742,14.742,0,0,1,28.083,22.6,14.942,14.942,0,0,1,22.6,28.083,14.742,14.742,0,0,1,15.05,30.1a14.742,14.742,0,0,1-7.555-2.017A14.943,14.943,0,0,1,2.017,22.6,14.743,14.743,0,0,1,0,15.05Zm2.5,0a12.136,12.136,0,0,0,3.16,8.277,17.225,17.225,0,0,1,4.575-5.388,14.963,14.963,0,0,1,6.11-3.221q-.451-1.053-.873-1.9a36.571,36.571,0,0,1-11.2,1.655q-1.174,0-1.746-.03,0,.12-.015.3T2.5,15.05Zm.391-3.1q.662.06,1.956.06a33.033,33.033,0,0,0,9.541-1.354A30.477,30.477,0,0,0,9.361,3.883,12.219,12.219,0,0,0,5.282,7.224,12.851,12.851,0,0,0,2.89,11.949Zm4.485,13a12.3,12.3,0,0,0,12.1,1.806A44.2,44.2,0,0,0,17.126,16.8a12.837,12.837,0,0,0-5.583,3.04A17.074,17.074,0,0,0,7.374,24.952ZM11.979,2.92a31.986,31.986,0,0,1,4.906,6.833,14.99,14.99,0,0,0,6.17-4.364A12.2,12.2,0,0,0,15.05,2.5,11.553,11.553,0,0,0,11.979,2.92Zm5.99,8.97q.451.963,1.023,2.438,2.227-.211,4.846-.211,1.866,0,3.7.09a12.084,12.084,0,0,0-2.95-7.284A14.893,14.893,0,0,1,17.969,11.889Zm1.776,4.545a43.2,43.2,0,0,1,2.077,9.15A12.558,12.558,0,0,0,25.7,21.641a12.157,12.157,0,0,0,1.806-5.207q-2.2-.15-4-.15Q21.852,16.284,19.745,16.434Z" transform="translate(0)" fill="#c2d8e0"/></g></svg>