<svg xmlns="http://www.w3.org/2000/svg" width="45.509" height="68.264" viewBox="0 0 45.509 68.264"><path d="M11.377,222.755a11.381,11.381,0,0,0,11.377-11.377V200H11.377a11.377,11.377,0,1,0,0,22.755Z" transform="translate(0 -154.491)" fill="#0acf83"/><path d="M0,111.377A11.381,11.381,0,0,1,11.377,100H22.755v22.755H11.377A11.381,11.381,0,0,1,0,111.377Z" transform="translate(0 -77.245)" fill="#a259ff"/><path d="M0,11.377A11.381,11.381,0,0,1,11.377,0H22.755V22.755H11.377A11.381,11.381,0,0,1,0,11.377Z" transform="translate(0 0)" fill="#f24e1e"/><path d="M100,0h11.377a11.377,11.377,0,1,1,0,22.755H100Z" transform="translate(-77.245 0)" fill="#ff7262"/><path d="M122.755,111.377A11.377,11.377,0,1,1,111.377,100,11.381,11.381,0,0,1,122.755,111.377Z" transform="translate(-77.245 -77.245)" fill="#1abcfe"/></svg>