<svg width="78" height="44" viewBox="0 0 78 44" fill="none" xmlns="http://www.w3.org/2000/svg">
<path d="M33.579 38.401L21.231 43.945C15.099 43.987 10.185 42.118 6.489 38.338C2.793 34.516 0.945 29.413 0.945 23.029C0.945 16.603 2.751 11.29 6.363 7.09C9.975 2.89 14.658 0.789999 20.412 0.789999C25.116 0.789999 29.169 2.071 32.571 4.633L32.634 6.586C32.634 9.526 32.256 12.13 31.5 14.398H27.72L27.279 7.972C24.297 6.166 21.021 5.263 17.451 5.263L14.868 5.389C12.264 6.859 10.353 9.085 9.135 12.067C7.959 15.049 7.371 18.22 7.371 21.58C7.371 26.662 8.652 30.799 11.214 33.991C13.776 37.183 17.178 38.779 21.42 38.779L22.743 38.716L32.445 35.314L33.579 38.401ZM77.4398 40.039L77.3768 43H60.4928L60.1148 40.984C61.4588 40.354 63.5168 39.619 66.2888 38.779L62.9498 30.337H45.9398L42.4118 39.283L49.0268 40.039L48.9638 43H32.7098L32.3318 40.984C33.3818 40.48 35.1248 39.85 37.5608 39.094L52.3028 3.373L51.8618 2.239L56.8388 0.537998L72.8408 39.535L77.4398 40.039ZM61.4378 26.494L54.3818 8.728L47.4518 26.494H61.4378Z" fill="black"/>
</svg>
