<svg xmlns="http://www.w3.org/2000/svg" xmlns:xlink="http://www.w3.org/1999/xlink" width="45" height="37" viewBox="0 0 45 37"><defs><clipPath id="a"><rect width="45" height="37" fill="none"/></clipPath></defs><g clip-path="url(#a)"><g transform="translate(0 3.723)"><path d="M314.358,497.089a6.1,6.1,0,0,0-3.319-1.406c-2.736-.286-5.5-.43-8.267-.5-2.752-.072-5.516-.072-8.274-.07s-5.521,0-8.274.07c-2.77.072-5.532.216-8.27.5a6.088,6.088,0,0,0-3.316,1.406,5.68,5.68,0,0,0-1.855,2.976,27.308,27.308,0,0,0-.69,4.9c-.1,1.671-.1,3.32-.1,4.922s0,3.247.1,4.918a27.1,27.1,0,0,0,.685,4.9,5.7,5.7,0,0,0,1.857,2.977,6.084,6.084,0,0,0,3.314,1.405c2.738.286,5.5.43,8.27.5,2.753.072,5.517.072,8.274.07s5.523,0,8.275-.07c2.77-.072,5.531-.216,8.269-.5a6.087,6.087,0,0,0,3.314-1.4,5.709,5.709,0,0,0,1.86-2.978,27.26,27.26,0,0,0,.684-4.9c.1-1.64.1-3.3.1-4.918h0v-.081h0a41.221,41.221,0,0,0-.771-9.742A5.69,5.69,0,0,0,314.358,497.089ZM288.331,516.27V501.935l.7.341,6.345,3.092,7.654,3.73.813.4-.815.395-7,3.389-7,3.387-.7.337Z" transform="translate(-271.991 -495.111)" fill="#c2d8e0" fill-rule="evenodd"/></g><rect width="45" height="37" fill="none"/></g></svg>